# xmcd
#
# Track frame offsets:
#	150
#	14672
#	27662
#	41130
#	54127
#	69025
#	81990
#	94520
#	108775
#	123032
#	136330
#	151475
#	163492
#	177792
#	191700
#	205610
#	219650
#	232597
#	244887
#	258347
#	270127
#	280587
#	296652
#
# Disc length: 4138 seconds
#
# Revision: 0
# Processed by: cddbd v1.5.1PL2 Copyright (c) Steve Scherf et al.
# Submitted via: dBpowerAMP V4.0
#
DISCID=38102817
DTITLE=Various Artist - Kansas City Blues  1924-1929 
DYEAR=1993
DGENRE=Blues
TTITLE0=Lottie Beaman-Kimbrough - Regular Man Blues
TTITLE1=Lottie Beaman-Kimbrough - Honey Blues
TTITLE2=Lottie Beaman-Kimbrough - Red River Blues
TTITLE3=Lottie Beaman-Kimbrough - Sugar Daddy Blues
TTITLE4=Lottie Beaman-Kimbrough - Low Down Painful Blues
TTITLE5=Lottie Beaman-Kimbrough - Mama Can't Lose
TTITLE6=Lena and Sylvester Kimbrough - City of the Dead
TTITLE7=Lena and Sylvester Kimbrough - Cabbage Head Blues
TTITLE8=Lottie Kimbrough and Winston Holmes - Lost Lover Blues
TTITLE9=Lottie Kimbrough and Winston Holmes - Wayward Girl Blues
TTITLE10=Lottie Kimbrough and Winston Holmes - Rolling Log Blues
TTITLE11=Lottie Kimbrough and Winston Holmes - Goin' Away Blues
TTITLE12=Lottie Kimbrough and Winston Holmes - Blue World Blues
TTITLE13=Winston Holmes and Charlie Turner - The Death of Holmes' Mule part 1
TTITLE14=Winston Holmes and Charlie Turner - The Death of Holmes' Mule part 2
TTITLE15=Winston Holmes and Charlie Turner - Rounders Lament
TTITLE16=Winston Holmes and Charlie Turner - The Kansas City Call
TTITLE17=Winston Holmes and Charlie Turner - Skinner
TTITLE18=Winston Holmes and Charlie Turner - Kansas City Dog Walk
TTITLE19=Lottie Beaman-Kimbrough - Going Away Blues
TTITLE20=Lottie Beaman-Kimbrough - Rollin' Log Blues
TTITLE21=Sylvester Kimbrough - Garbage Can Blues
TTITLE22=Sylvester Kimbrough - Bird Liver Blues
EXTD=Kansas City Blues  1924-1929     Document DOCD-5152
EXTT0=
EXTT1=
EXTT2=
EXTT3=
EXTT4=
EXTT5=
EXTT6=
EXTT7=
EXTT8=
EXTT9=
EXTT10=
EXTT11=
EXTT12=
EXTT13=
EXTT14=
EXTT15=
EXTT16=
EXTT17=
EXTT18=
EXTT19=
EXTT20=
EXTT21=
EXTT22=
PLAYORDER=
